HIERARCHY
ROOT SpineBase
{
  OFFSET 0.000000 0.000000 0.000000
  CHANNELS 6 Xposition Yposition Zposition Zrotation Xrotation Yrotation
  JOINT SpineMid
  {
    OFFSET 0.000000 31.864201 0.000000
    CHANNELS 3 Zrotation Xrotation Yrotation
    JOINT SpineShoulder
    {
      OFFSET 0.084000 23.645505 -0.767591
      CHANNELS 3 Zrotation Xrotation Yrotation
      JOINT Neck
      {
        OFFSET 0.052023 7.812034 -0.581937
        CHANNELS 3 Zrotation Xrotation Yrotation
        JOINT Head
        {
          OFFSET -5.308397 14.211080 -1.105537
          CHANNELS 3 Zrotation Xrotation Yrotation
          End Site
          {
            OFFSET 0 0 0
          }
        }
      }
      JOINT ShoulderLeft
      {
        OFFSET -17.095634 -6.800082 6.848297
        CHANNELS 3 Zrotation Xrotation Yrotation
        JOINT ElbowLeft
        {
          OFFSET -1.668819 -31.538749 1.621067
          CHANNELS 3 Zrotation Xrotation Yrotation
          JOINT WristLeft
          {
            OFFSET -5.423980 -21.450865 -5.253054
            CHANNELS 3 Zrotation Xrotation Yrotation
            JOINT HandLeft
            {
              OFFSET -0.281838 -5.192515 -1.415749
              CHANNELS 3 Zrotation Xrotation Yrotation
              JOINT HandTipLeft
              {
                OFFSET -1.029610 -6.387483 -3.818611
                CHANNELS 3 Zrotation Xrotation Yrotation
                End Site
                {
                  OFFSET 0 0 0
                }
              }
              JOINT ThumbLeft
              {
                OFFSET -2.689427 1.409455 -3.388615
                CHANNELS 3 Zrotation Xrotation Yrotation
                End Site
                {
                  OFFSET 0 0 0
                }
              }
            }
          }
        }
      }
      JOINT ShoulderRight
      {
        OFFSET 15.425108 -2.998427 -8.370625
        CHANNELS 3 Zrotation Xrotation Yrotation
        JOINT ElbowRight
        {
          OFFSET 7.182754 -24.854621 -1.981700
          CHANNELS 3 Zrotation Xrotation Yrotation
          JOINT WristRight
          {
            OFFSET -2.197277 -25.268237 -6.384513
            CHANNELS 3 Zrotation Xrotation Yrotation
            JOINT HandRight
            {
              OFFSET -1.924205 -5.894352 -0.187770
              CHANNELS 3 Zrotation Xrotation Yrotation
              JOINT HandTipRight
              {
                OFFSET -0.489736 -7.161505 -0.666856
                CHANNELS 3 Zrotation Xrotation Yrotation
                End Site
                {
                  OFFSET 0 0 0
                }
              }
              JOINT ThumbRight
              {
                OFFSET 2.619450 -1.557292 -3.010755
                CHANNELS 3 Zrotation Xrotation Yrotation
                End Site
                {
                  OFFSET 0 0 0
                }
              }
            }
          }
        }
      }
    }
  }
  JOINT HipLeft
  {
    OFFSET -7.016612 0.070711 -0.787955
    CHANNELS 3 Zrotation Xrotation Yrotation
    JOINT KneeLeft
    {
      OFFSET -3.554382 -31.828188 2.542062
      CHANNELS 3 Zrotation Xrotation Yrotation
      JOINT AnkleLeft
      {
        OFFSET 13.992482 -38.947960 9.016242
        CHANNELS 3 Zrotation Xrotation Yrotation
        JOINT FootLeft
        {
          OFFSET -0.579597 -5.936217 -5.173898
          CHANNELS 3 Zrotation Xrotation Yrotation
          End Site
          {
            OFFSET 0 0 0
          }
        }
      }
    }
  }
  JOINT HipRight
  {
    OFFSET 7.496293 1.556118 -6.457973
    CHANNELS 3 Zrotation Xrotation Yrotation
    JOINT KneeRight
    {
      OFFSET 7.692775 -31.507000 0.995946
      CHANNELS 3 Zrotation Xrotation Yrotation
      JOINT AnkleRight
      {
        OFFSET 4.815090 -39.107468 7.859997
        CHANNELS 3 Zrotation Xrotation Yrotation
        JOINT FootRight
        {
          OFFSET -1.772249 -5.686316 -5.128463
          CHANNELS 3 Zrotation Xrotation Yrotation
          End Site
          {
            OFFSET 0 0 0
          }
        }
      }
    }
  }
}
MOTION
Frames: 6
Frame Time: 0.033333
-22.191483 78.341075 344.527801 -0.000000 0.000000 21.339990 0.000000 0.000000 -21.339990 -0.000000 0.000000 0.000000 -0.000000 0.000000 0.000000 0.000000 0.000000 0.000000 -0.000000 0.000000 0.000000 -0.000000 0.000000 0.000000 -0.000000 0.000000 0.000000 -0.000000 0.000000 0.000000 0.000000 0.000000 0.000000 0.000000 0.000000 0.000000 -0.000000 0.000000 0.000000 -0.000000 0.000000 0.000000 -0.000000 0.000000 0.000000 -0.000000 0.000000 0.000000 0.000000 0.000000 0.000000 0.000000 0.000000 0.000000 0.000000 0.000000 -21.339990 -0.000000 0.000000 0.000000 -0.000000 0.000000 0.000000 0.000000 0.000000 0.000000 0.000000 0.000000 -21.339990 -0.000000 0.000000 0.000000 -0.000000 0.000000 0.000000 0.000000 0.000000 0.000000
-22.185899 78.344414 344.523331 -0.005453 -0.004286 21.364149 0.006639 0.002005 -21.364149 -0.000000 0.000000 0.000000 -0.000000 0.000000 0.000000 0.000000 0.000000 0.000000 -0.000000 0.000000 0.000000 -0.000000 0.000000 0.000000 -0.365440 2.395177 -0.022613 -3.796472 -3.846275 2.535571 0.000000 0.000000 0.000000 0.000000 0.000000 0.000000 -0.000000 0.000000 0.000000 -0.000000 0.000000 0.000000 -0.000000 0.000000 0.000000 0.036902 1.723221 -0.121674 0.000000 0.000000 0.000000 0.000000 0.000000 0.000000 0.006639 0.002005 -21.364149 -0.000000 0.000000 0.000000 -0.159084 -1.186091 0.255085 0.000000 0.000000 0.000000 0.006639 0.002005 -21.364149 -0.000000 0.000000 0.000000 -1.405800 -2.890966 2.174608 0.000000 0.000000 0.000000
-22.180241 78.346846 344.519520 -0.008672 -0.007923 21.384780 0.010964 0.004216 -21.384781 -0.000000 0.000000 0.000000 -0.000000 0.000000 0.000000 0.000000 0.000000 0.000000 -0.000000 0.000000 0.000000 -0.000000 0.000000 0.000000 -0.661571 4.253201 -0.025745 -6.656181 -6.685148 4.140569 0.000000 0.000000 0.000000 0.000000 0.000000 0.000000 -0.000000 0.000000 0.000000 -0.000000 0.000000 0.000000 -0.000000 0.000000 0.000000 -0.015176 3.080215 -0.208345 0.000000 0.000000 0.000000 0.000000 0.000000 0.000000 0.010964 0.004216 -21.384781 -0.000000 0.000000 0.000000 -0.245676 -2.066468 0.417964 0.000000 0.000000 0.000000 0.010964 0.004216 -21.384781 -0.000000 0.000000 0.000000 -2.361994 -5.251496 3.791227 0.000000 0.000000 0.000000
-22.174508 78.348373 344.516369 -0.009658 -0.010913 21.401892 0.012974 0.006636 -21.401894 -0.000000 0.000000 0.000000 -0.000000 0.000000 0.000000 0.000000 0.000000 0.000000 -0.000000 0.000000 0.000000 -0.000000 0.000000 0.000000 -0.895284 5.619600 -0.016983 -8.801325 -8.571050 5.157096 0.000000 0.000000 0.000000 0.000000 0.000000 0.000000 -0.000000 0.000000 0.000000 -0.000000 0.000000 0.000000 -0.908499 -0.101715 0.061184 0.751932 4.141181 -0.317531 0.000000 0.000000 0.000000 0.000000 0.000000 0.000000 0.012974 0.006636 -21.401894 -0.000000 0.000000 0.000000 -0.261056 -2.627099 0.487730 0.000000 0.000000 0.000000 0.012974 0.006636 -21.401894 -0.000000 0.000000 0.000000 -2.907750 -7.012648 4.860581 0.000000 0.000000 0.000000
-22.168700 78.348994 344.513878 -0.008410 -0.013254 21.415493 0.012669 0.009268 -21.415495 -0.000000 0.000000 0.000000 -0.000000 0.000000 0.000000 0.000000 0.000000 0.000000 -0.000000 0.000000 0.000000 -0.000000 0.000000 0.000000 -1.071803 6.532013 -0.001502 -10.376717 -9.573847 5.804052 0.000000 0.000000 0.000000 0.000000 0.000000 0.000000 -0.000000 0.000000 0.000000 -0.000000 0.000000 0.000000 -0.999333 -0.117172 0.068870 0.602375 4.699333 -0.329247 0.000000 0.000000 0.000000 0.000000 0.000000 0.000000 0.012669 0.009268 -21.415495 -0.000000 0.000000 0.000000 -0.206136 -2.859482 0.463775 0.000000 0.000000 0.000000 0.012669 0.009268 -21.415495 -0.000000 0.000000 0.000000 -3.078492 -8.142033 5.397372 0.000000 0.000000 0.000000
-22.162817 78.348708 344.512047 -0.004929 -0.014948 21.425590 0.010049 0.012114 -21.425591 -0.000000 0.000000 0.000000 -0.000000 0.000000 0.000000 0.000000 0.000000 0.000000 -0.000000 0.000000 0.000000 -0.606808 0.732027 -0.032528 -0.590875 6.286792 0.042519 -11.475925 -9.749559 6.215764 0.000000 0.000000 0.000000 0.000000 0.000000 0.000000 -0.000000 0.000000 0.000000 -0.000000 0.000000 0.000000 -0.972805 -0.122086 0.069618 0.240088 4.819332 -0.291765 0.000000 0.000000 0.000000 0.000000 0.000000 0.000000 0.010049 0.012114 -21.425591 -0.000000 0.000000 0.000000 -0.081335 -2.760404 0.345736 0.000000 0.000000 0.000000 0.010049 0.012114 -21.425591 -0.000000 0.000000 0.000000 -2.899324 -8.631671 5.413922 0.000000 0.000000 0.000000
